<?xml version="1.0" encoding="UTF-8"?>
<svg width="1024px" height="1024px" viewBox="0 0 1024 1024" version="1.1" xmlns="http://www.w3.org/2000/svg" xmlns:xlink="http://www.w3.org/1999/xlink">
    <title>Group</title>
    <defs>
        <filter x="-16.0%" y="-16.0%" width="132.0%" height="132.0%" filterUnits="objectBoundingBox" id="filter-1">
            <feGaussianBlur stdDeviation="15.9815509 0.768134311" in="SourceGraphic"></feGaussianBlur>
        </filter>
        <filter x="-23.8%" y="-25.3%" width="147.5%" height="148.9%" filterUnits="objectBoundingBox" id="filter-2">
            <feGaussianBlur stdDeviation="25 0" in="SourceGraphic"></feGaussianBlur>
        </filter>
        <filter x="-16.0%" y="-16.0%" width="132.0%" height="132.0%" filterUnits="objectBoundingBox" id="filter-3">
            <feGaussianBlur stdDeviation="15.9815509 0.768134311" in="SourceGraphic"></feGaussianBlur>
        </filter>
        <filter x="-23.8%" y="-25.3%" width="147.5%" height="148.9%" filterUnits="objectBoundingBox" id="filter-4">
            <feGaussianBlur stdDeviation="25 0" in="SourceGraphic"></feGaussianBlur>
        </filter>
    </defs>
    <g id="Page-1" stroke="none" stroke-width="1" fill="none" fill-rule="evenodd">
        <g id="Group">
            <rect id="Rectangle" stroke="#979797" fill-opacity="0" fill="#FFFFFF" x="0.5" y="0.5" width="1023" height="1023"></rect>
            <g id="Triangle-Green" transform="translate(162.012301, 172.785265)">
                <polygon id="Triangle-Fill" fill="#6AF453" opacity="0.902553013" filter="url(#filter-1)" points="174 25 324 325 24 325"></polygon>
                <path d="M175,0 L255.644027,156.219001 L350,339 L350,339 L0,339 L175,0 Z" id="Triangle-Border" stroke="#6AF453" stroke-width="10" filter="url(#filter-2)"></path>
            </g>
            <g id="Triangle-Red" transform="translate(687.012301, 681.285265) rotate(-180.000000) translate(-687.012301, -681.285265) translate(512.012301, 511.785265)">
                <polygon id="Triangle-Fill" fill="#F45353" opacity="0.902553013" filter="url(#filter-3)" points="174 25 324 325 24 325"></polygon>
                <path d="M175,0 L255.644027,156.219001 L350,339 L350,339 L0,339 L175,0 Z" id="Triangle-Border" stroke="#F45353" stroke-width="10" filter="url(#filter-4)"></path>
            </g>
        </g>
    </g>
</svg>